<svg width="50" height="50" viewBox="0 0 50 50" fill="none" xmlns="http://www.w3.org/2000/svg">
<path d="M19.7917 30.2083V23.9583" stroke="#CD3A3A" stroke-width="2.66667" stroke-linecap="round"/>
<path d="M30.2083 30.2083V23.9583" stroke="#CD3A3A" stroke-width="2.66667" stroke-linecap="round"/>
<path d="M6.25 13.5417H43.75C40.824 13.5417 39.361 13.5417 38.3102 14.2439C37.8552 14.5479 37.4646 14.9385 37.1606 15.3935C36.4583 16.4444 36.4583 17.9074 36.4583 20.8333V32.2917C36.4583 36.22 36.4583 38.1842 35.2379 39.4046C34.0175 40.625 32.0533 40.625 28.125 40.625H21.875C17.9466 40.625 15.9824 40.625 14.7621 39.4046C13.5417 38.1842 13.5417 36.22 13.5417 32.2917V20.8333C13.5417 17.9074 13.5417 16.4444 12.8395 15.3935C12.5355 14.9385 12.1448 14.5479 11.6899 14.2439C10.6389 13.5417 9.17596 13.5417 6.25 13.5417Z" stroke="#CD3A3A" stroke-width="2.66667" stroke-linecap="round"/>
<path d="M19.7917 7.29217C19.7917 7.29217 20.8333 5.20833 25 5.20833C29.1667 5.20833 30.2083 7.29167 30.2083 7.29167" stroke="#CD3A3A" stroke-width="2.66667" stroke-linecap="round"/>
</svg>
